<svg width="20" height="24" viewBox="0 0 20 24" fill="none" xmlns="http://www.w3.org/2000/svg">
<path d="M16.5851 9.27695V6.96708C16.5851 3.67695 13.6312 1 10.0008 1C6.37031 1 3.4164 3.67695 3.4164 6.96708V9.27695C2.01681 9.51811 0.947266 10.7379 0.947266 12.2058V20.2477C0.947266 21.8877 2.28183 23.2222 3.92216 23.2222H16.0794C17.7197 23.2222 19.0543 21.8877 19.0543 20.2473V12.2053C19.0543 10.7379 17.9847 9.51811 16.5851 9.27695ZM4.23945 6.96708C4.23945 4.13045 6.82381 1.82305 10.0008 1.82305C13.1777 1.82305 15.7621 4.13045 15.7621 6.96708V9.23045H4.23945V6.96708ZM18.2312 20.2473C18.2312 21.4337 17.2658 22.3992 16.0794 22.3992H3.92216C2.73574 22.3992 1.77031 21.4337 1.77031 20.2473V12.2053C1.77031 11.0189 2.73574 10.0535 3.92216 10.0535H16.0794C17.2658 10.0535 18.2312 11.0189 18.2312 12.2053V20.2473Z" fill="black"/>
<path d="M10.0006 12.5227C9.09276 12.5227 8.35449 13.261 8.35449 14.1688V16.6379C8.35449 17.5458 9.09276 18.284 10.0006 18.284C10.9084 18.284 11.6467 17.5458 11.6467 16.6379V14.1688C11.6467 13.261 10.9084 12.5227 10.0006 12.5227ZM10.8236 16.6379C10.8236 17.0918 10.4545 17.461 10.0006 17.461C9.54667 17.461 9.17754 17.0918 9.17754 16.6379V14.1688C9.17754 13.7149 9.54667 13.3458 10.0006 13.3458C10.4545 13.3458 10.8236 13.7149 10.8236 14.1688V16.6379Z" fill="black"/>
</svg>
