<svg xmlns="http://www.w3.org/2000/svg" viewBox="0 0 841.9 595.3">
    <!-- Header -->
    <symbol id='compare' viewBox="0 0 19 19">
        <path fill-rule="evenodd" clip-rule="evenodd" d="M18 1H15V18H18V1ZM15 0H14V1V18V19H15H18H19V18V1V0H18H15ZM11 9.44441H8V18H11V9.44441ZM8 8.44441H7V9.44441V18V19H8H11H12V18V9.44441V8.44441H11H8ZM1 5.22216H4V18H1V5.22216ZM0 4.22216H1H4H5V5.22216V18V19H4H1H0V18V5.22216V4.22216Z"/>  
    </symbol>
    <symbol id='search' viewBox="0 0 20 20">
        <path d="M19.8241 18.98L14.9638 14.1197C16.2675 12.6208 17.0569 10.6652 17.0569 8.52772C17.0569 3.82262 13.2298 0 8.52918 0C3.82408 0 0.00146484 3.82705 0.00146484 8.52772C0.00146484 13.2284 3.82852 17.0554 8.52918 17.0554C10.6667 17.0554 12.6223 16.2661 14.1212 14.9623L18.9815 19.8226C19.0968 19.9379 19.252 20 19.4028 20C19.5536 20 19.7088 19.9424 19.8241 19.8226C20.0547 19.592 20.0547 19.2106 19.8241 18.98ZM1.19437 8.52772C1.19437 4.48337 4.48484 1.19734 8.52475 1.19734C12.5691 1.19734 15.8551 4.4878 15.8551 8.52772C15.8551 12.5676 12.5691 15.8625 8.52475 15.8625C4.48484 15.8625 1.19437 12.5721 1.19437 8.52772Z"/>
    </symbol>
    <symbol id='shopping-cart' viewBox="0 0 20 20">
        <path d="M19.9167 3.4999C19.8334 3.41657 19.75 3.33322 19.5834 3.33322H3.75L3.33332 1.16657C3.33332 0.999893 3.08332 0.833252 2.91664 0.833252H0.416641C0.16668 0.833213 0 0.999893 0 1.24989C0 1.49989 0.16668 1.66657 0.41668 1.66657H2.58336L4.58336 11.8333C4.83336 13.1666 6.08336 14.1666 7.41668 14.1666H17C17.25 14.1666 17.4167 13.9999 17.4167 13.7499C17.4167 13.4999 17.25 13.3332 17 13.3332H7.5C6.83332 13.3332 6.16668 12.9999 5.83332 12.4165L18 10.7499C18.1667 10.7499 18.3333 10.5832 18.3333 10.4166L20 3.7499C20 3.7499 20 3.58322 19.9167 3.4999ZM17.5833 9.9999L5.41664 11.5832L3.91664 4.08322H19L17.5833 9.9999Z"/>
        <path d="M7.08332 15C5.91668 15 5 15.9167 5 17.0833C5 18.25 5.91668 19.1666 7.08332 19.1666C8.25 19.1666 9.16664 18.25 9.16664 17.0833C9.16668 15.9167 8.25 15 7.08332 15ZM7.08332 18.3333C6.41664 18.3333 5.83332 17.75 5.83332 17.0833C5.83332 16.4167 6.41664 15.8333 7.08332 15.8333C7.75 15.8333 8.33332 16.4167 8.33332 17.0833C8.33332 17.75 7.75 18.3333 7.08332 18.3333Z"/>
        <path d="M15.4149 15C14.2482 15 13.3315 15.9167 13.3315 17.0833C13.3315 18.25 14.2482 19.1666 15.4149 19.1666C16.5815 19.1666 17.4982 18.25 17.4982 17.0833C17.4982 15.9167 16.5815 15 15.4149 15ZM15.4149 18.3333C14.7482 18.3333 14.1649 17.75 14.1649 17.0833C14.1649 16.4167 14.7482 15.8333 15.4149 15.8333C16.0815 15.8333 16.6649 16.4167 16.6649 17.0833C16.6649 17.75 16.0815 18.3333 15.4149 18.3333Z"/>
    </symbol>
    <symbol id='star' viewBox="0 0 20 20">
        <path d="M4.04053 19.5278C3.96642 19.5278 3.89232 19.5049 3.83003 19.4594C3.71977 19.3792 3.66464 19.2435 3.68791 19.1093L4.79446 12.659L0.107975 8.09132C0.0106009 7.99609 -0.0244824 7.85397 0.0174028 7.72473C0.059646 7.59514 0.171698 7.50063 0.306661 7.48094L6.78276 6.53978L9.67928 0.671196C9.73942 0.548762 9.864 0.471436 10 0.471436C10.1364 0.471436 10.261 0.548762 10.3208 0.671196L13.217 6.53978L19.6934 7.48094C19.8284 7.50063 19.9401 7.59478 19.9827 7.72473C20.0246 7.85397 19.9898 7.99645 19.8921 8.09132L15.2056 12.6597L16.3118 19.1096C16.3347 19.2439 16.2796 19.3796 16.1697 19.4598C16.0594 19.5407 15.913 19.551 15.7924 19.487L10 16.4419L4.207 19.487C4.15473 19.5142 4.09745 19.5278 4.04053 19.5278ZM1.12718 8.08488L5.42883 12.278C5.51296 12.36 5.55162 12.4789 5.53157 12.5949L4.51594 18.5154L9.83357 15.7202C9.93775 15.665 10.062 15.665 10.1669 15.7202L15.4838 18.5154L14.4685 12.5949C14.4485 12.4789 14.4871 12.3604 14.5713 12.278L18.8729 8.08488L12.9284 7.22104C12.8117 7.20421 12.7111 7.13082 12.6589 7.02522L10 1.63885L7.34123 7.02557C7.28896 7.13118 7.18836 7.20457 7.07166 7.2214L1.12718 8.08488Z"/>
    </symbol>
    <symbol id='user' viewBox="0 0 20 20">
        <path d="M14.6249 12.9868C14.609 12.9851 12.3068 13.053 11.9645 10.5859C12.3448 10.3205 12.6954 9.97602 13.0042 9.55797C13.605 8.74469 13.9921 7.72445 14.13 6.6209C14.1774 6.57805 14.2166 6.52473 14.243 6.46187C14.4925 5.86754 14.619 5.23293 14.619 4.57559C14.619 2.05262 12.7159 0 10.3764 0C9.76457 0 9.17098 0.140937 8.61035 0.419258C8.39648 0.435586 8.18691 0.473203 7.98594 0.53125C7.02512 0.808867 6.24324 1.52125 5.7843 2.53727C5.33875 3.52375 5.25094 4.68504 5.53711 5.80727C5.59758 6.04434 5.67445 6.2773 5.76562 6.49988C5.79031 6.56008 5.82711 6.61145 5.87129 6.65371C6.09465 8.37617 6.91422 9.80332 8.03172 10.5825C7.68836 13.0538 5.38695 12.9852 5.37109 12.9869C3.71555 13.0431 2.38574 14.4065 2.38574 16.0755V19.5497C2.38574 19.7984 2.58734 20 2.83605 20H6.79039H13.2055H17.1599C17.4086 20 17.6103 19.7984 17.6103 19.5497V16.0755C17.6102 14.4064 16.2805 13.043 14.6249 12.9868ZM8.23598 1.39652C8.40031 1.34902 8.57387 1.32086 8.75184 1.31285C8.81789 1.30988 8.88246 1.29242 8.94102 1.26164C9.39691 1.02211 9.87988 0.900664 10.3764 0.900664C12.2192 0.900664 13.7184 2.54922 13.7184 4.57559C13.7184 4.63641 13.7167 4.69691 13.714 4.75719C13.3566 4.39422 12.86 4.16863 12.3116 4.16863H9.24242C9.0598 4.16863 8.88648 4.11129 8.74113 4.00277C8.61703 3.91016 8.52109 3.78566 8.46379 3.64277C8.37504 3.42176 8.15621 3.28352 7.91801 3.29848C7.67895 3.31371 7.47777 3.47973 7.41738 3.71172C7.23953 4.39516 6.88488 5.02469 6.39832 5.5352C5.94559 3.67195 6.76266 1.82219 8.23598 1.39652ZM7.84418 9.18516C7.2582 8.4693 6.87445 7.50262 6.75281 6.4443C7.32105 5.93785 7.77027 5.30762 8.06273 4.60855C8.10711 4.64949 8.15371 4.6882 8.20238 4.72457C8.50457 4.95008 8.86418 5.06934 9.24246 5.06934H12.3116C12.7459 5.06934 13.1202 5.3298 13.2872 5.70258C13.2872 5.70578 13.2867 5.70883 13.2867 5.71203C13.2867 8.25414 11.8117 10.3223 9.99867 10.3223C9.20961 10.3223 8.44441 9.91848 7.84418 9.18516ZM8.87891 11.0247C9.2359 11.1539 9.61141 11.223 9.99867 11.223C10.3829 11.223 10.7582 11.1561 11.1175 11.0271C11.2824 11.8861 11.76 12.6348 12.4272 13.1503L10.0625 16.5178C10.0471 16.5398 10.0257 16.5509 9.99879 16.5509C9.97195 16.5509 9.95051 16.5397 9.93512 16.5178L7.56988 13.1495C8.23707 12.6335 8.71453 11.8843 8.87891 11.0247ZM16.7096 19.0993H13.2055H6.79039H3.28637V16.0754C3.28637 14.8675 4.26906 13.8848 5.47695 13.8848C5.49336 13.8848 6.21801 13.8672 6.79059 13.607L9.19797 17.0354C9.38094 17.296 9.68031 17.4516 9.99875 17.4516C9.99875 17.4516 9.99875 17.4516 9.99879 17.4516C10.3172 17.4516 10.6166 17.296 10.7996 17.0354L13.2065 13.6075C13.8595 13.8848 14.5026 13.8848 14.519 13.8848C15.7269 13.8848 16.7096 14.8675 16.7096 16.0754V19.0993Z"/>
    </symbol>
    <symbol id='locked' viewBox="0 0 20 24">
        <path d="M16.5851 9.27695V6.96708C16.5851 3.67695 13.6312 1 10.0008 1C6.37031 1 3.4164 3.67695 3.4164 6.96708V9.27695C2.01681 9.51811 0.947266 10.7379 0.947266 12.2058V20.2477C0.947266 21.8877 2.28183 23.2222 3.92216 23.2222H16.0794C17.7197 23.2222 19.0543 21.8877 19.0543 20.2473V12.2053C19.0543 10.7379 17.9847 9.51811 16.5851 9.27695ZM4.23945 6.96708C4.23945 4.13045 6.82381 1.82305 10.0008 1.82305C13.1777 1.82305 15.7621 4.13045 15.7621 6.96708V9.23045H4.23945V6.96708ZM18.2312 20.2473C18.2312 21.4337 17.2658 22.3992 16.0794 22.3992H3.92216C2.73574 22.3992 1.77031 21.4337 1.77031 20.2473V12.2053C1.77031 11.0189 2.73574 10.0535 3.92216 10.0535H16.0794C17.2658 10.0535 18.2312 11.0189 18.2312 12.2053V20.2473Z"/>
        <path d="M10.0006 12.5227C9.09276 12.5227 8.35449 13.261 8.35449 14.1688V16.6379C8.35449 17.5458 9.09276 18.284 10.0006 18.284C10.9084 18.284 11.6467 17.5458 11.6467 16.6379V14.1688C11.6467 13.261 10.9084 12.5227 10.0006 12.5227ZM10.8236 16.6379C10.8236 17.0918 10.4545 17.461 10.0006 17.461C9.54667 17.461 9.17754 17.0918 9.17754 16.6379V14.1688C9.17754 13.7149 9.54667 13.3458 10.0006 13.3458C10.4545 13.3458 10.8236 13.7149 10.8236 14.1688V16.6379Z"/>
    </symbol>
    <!-- Main -->
    <symbol id='cart' viewBox="0 0 32 32">
        <path d="M26.5 11.5H5.5C4.30693 11.5013 3.16311 11.9759 2.31948 12.8195C1.47585 13.6631 1.00132 14.8069 1 16V26.5C1.00132 27.6931 1.47585 28.8369 2.31948 29.6805C3.16311 30.5241 4.30693 30.9987 5.5 31H26.5C27.6931 30.9987 28.8369 30.5241 29.6805 29.6805C30.5241 28.8369 30.9987 27.6931 31 26.5V16C30.9987 14.8069 30.5241 13.6631 29.6805 12.8195C28.8369 11.9759 27.6931 11.5013 26.5 11.5ZM30 26.5C29.9989 27.4279 29.6299 28.3176 28.9737 28.9737C28.3176 29.6299 27.4279 29.9989 26.5 30H5.5C4.57207 29.9989 3.68244 29.6299 3.0263 28.9737C2.37015 28.3176 2.00106 27.4279 2 26.5V16C2.00106 15.0721 2.37015 14.1824 3.0263 13.5263C3.68244 12.8701 4.57207 12.5011 5.5 12.5H26.5C27.4279 12.5011 28.3176 12.8701 28.9737 13.5263C29.6299 14.1824 29.9989 15.0721 30 16V26.5Z" />
        <path d="M27 24.5H24C23.6022 24.5 23.2206 24.658 22.9393 24.9393C22.658 25.2206 22.5 25.6022 22.5 26V27C22.5 27.3978 22.658 27.7794 22.9393 28.0607C23.2206 28.342 23.6022 28.5 24 28.5H27C27.3978 28.5 27.7794 28.342 28.0607 28.0607C28.342 27.7794 28.5 27.3978 28.5 27V26C28.5 25.6022 28.342 25.2206 28.0607 24.9393C27.7794 24.658 27.3978 24.5 27 24.5ZM27.5 27C27.5 27.1326 27.4473 27.2598 27.3536 27.3536C27.2598 27.4473 27.1326 27.5 27 27.5H24C23.8674 27.5 23.7402 27.4473 23.6464 27.3536C23.5527 27.2598 23.5 27.1326 23.5 27V26C23.5 25.8674 23.5527 25.7402 23.6464 25.6464C23.7402 25.5527 23.8674 25.5 24 25.5H27C27.1326 25.5 27.2598 25.5527 27.3536 25.6464C27.4473 25.7402 27.5 25.8674 27.5 26V27Z" />
        <path d="M8.5 23C8.5 22.8674 8.44732 22.7402 8.35355 22.6464C8.25979 22.5527 8.13261 22.5 8 22.5H4.5C4.36739 22.5 4.24021 22.5527 4.14645 22.6464C4.05268 22.7402 4 22.8674 4 23C4 23.1326 4.05268 23.2598 4.14645 23.3536C4.24021 23.4473 4.36739 23.5 4.5 23.5H8C8.13261 23.5 8.25979 23.4473 8.35355 23.3536C8.44732 23.2598 8.5 23.1326 8.5 23Z" />
        <path d="M14 23C14 22.8674 13.9473 22.7402 13.8536 22.6464C13.7598 22.5527 13.6326 22.5 13.5 22.5H10C9.86739 22.5 9.74021 22.5527 9.64645 22.6464C9.55268 22.7402 9.5 22.8674 9.5 23C9.5 23.1326 9.55268 23.2598 9.64645 23.3536C9.74021 23.4473 9.86739 23.5 10 23.5H13.5C13.6326 23.5 13.7598 23.4473 13.8536 23.3536C13.9473 23.2598 14 23.1326 14 23Z" />
        <path d="M19 22.5H15.5C15.3674 22.5 15.2402 22.5527 15.1464 22.6464C15.0527 22.7402 15 22.8674 15 23C15 23.1326 15.0527 23.2598 15.1464 23.3536C15.2402 23.4473 15.3674 23.5 15.5 23.5H19C19.1326 23.5 19.2598 23.4473 19.3536 23.3536C19.4473 23.2598 19.5 23.1326 19.5 23C19.5 22.8674 19.4473 22.7402 19.3536 22.6464C19.2598 22.5527 19.1326 22.5 19 22.5Z" />
        <path d="M25 23C25 22.8674 24.9473 22.7402 24.8536 22.6464C24.7598 22.5527 24.6326 22.5 24.5 22.5H21C20.8674 22.5 20.7402 22.5527 20.6464 22.6464C20.5527 22.7402 20.5 22.8674 20.5 23C20.5 23.1326 20.5527 23.2598 20.6464 23.3536C20.7402 23.4473 20.8674 23.5 21 23.5H24.5C24.6326 23.5 24.7598 23.4473 24.8536 23.3536C24.9473 23.2598 25 23.1326 25 23Z" />
        <path d="M9.5 27H6C5.86739 27 5.74021 27.0527 5.64645 27.1464C5.55268 27.2402 5.5 27.3674 5.5 27.5C5.5 27.6326 5.55268 27.7598 5.64645 27.8536C5.74021 27.9473 5.86739 28 6 28H9.5C9.63261 28 9.75979 27.9473 9.85355 27.8536C9.94732 27.7598 10 27.6326 10 27.5C10 27.3674 9.94732 27.2402 9.85355 27.1464C9.75979 27.0527 9.63261 27 9.5 27Z" />
        <path d="M16 27H12.5C12.3674 27 12.2402 27.0527 12.1464 27.1464C12.0527 27.2402 12 27.3674 12 27.5C12 27.6326 12.0527 27.7598 12.1464 27.8536C12.2402 27.9473 12.3674 28 12.5 28H16C16.1326 28 16.2598 27.9473 16.3536 27.8536C16.4473 27.7598 16.5 27.6326 16.5 27.5C16.5 27.3674 16.4473 27.2402 16.3536 27.1464C16.2598 27.0527 16.1326 27 16 27Z" />
        <path d="M5 18.5H8C8.26522 18.5 8.51957 18.3946 8.70711 18.2071C8.89464 18.0196 9 17.7652 9 17.5V15.5C9 15.2348 8.89464 14.9804 8.70711 14.7929C8.51957 14.6054 8.26522 14.5 8 14.5H5C4.73478 14.5 4.48043 14.6054 4.29289 14.7929C4.10536 14.9804 4 15.2348 4 15.5V17.5C4 17.7652 4.10536 18.0196 4.29289 18.2071C4.48043 18.3946 4.73478 18.5 5 18.5ZM7 17.5V17H8V17.5H7ZM8 16H7V15.5H8V16ZM5 15.5H6V17.5H5V15.5Z" />
        <path d="M25.0251 15.9394C25.1644 15.8001 25.3297 15.6896 25.5118 15.6142C25.6938 15.5388 25.8888 15.5 26.0858 15.5C26.2828 15.5 26.4779 15.5388 26.6599 15.6142C26.8419 15.6896 27.0073 15.8001 27.1466 15.9394C27.2409 16.0305 27.3672 16.0809 27.4983 16.0798C27.6294 16.0786 27.7548 16.0261 27.8475 15.9333C27.9402 15.8406 27.9928 15.7152 27.9939 15.5841C27.9951 15.453 27.9447 15.3267 27.8536 15.2324C27.3844 14.7643 26.7486 14.5015 26.0858 14.5015C25.423 14.5015 24.7873 14.7643 24.3181 15.2324C24.227 15.3267 24.1766 15.453 24.1778 15.5841C24.1789 15.7152 24.2315 15.8406 24.3242 15.9333C24.4169 16.0261 24.5423 16.0786 24.6734 16.0798C24.8045 16.0809 24.9308 16.0305 25.0251 15.9394Z" />
        <path d="M25.0251 16.6467C24.934 16.741 24.8836 16.8673 24.8848 16.9984C24.8859 17.1295 24.9385 17.2549 25.0312 17.3476C25.1239 17.4403 25.2493 17.4929 25.3804 17.494C25.5115 17.4952 25.6378 17.4448 25.7321 17.3537C25.7786 17.3072 25.8337 17.2703 25.8944 17.2452C25.9551 17.22 26.0202 17.2071 26.0859 17.2071C26.1516 17.2071 26.2166 17.22 26.2773 17.2452C26.338 17.2703 26.3932 17.3072 26.4396 17.3537C26.5339 17.4448 26.6602 17.4952 26.7913 17.494C26.9224 17.4929 27.0478 17.4403 27.1405 17.3476C27.2332 17.2549 27.2858 17.1295 27.287 16.9984C27.2881 16.8673 27.2377 16.741 27.1466 16.6467C27.0073 16.5074 26.842 16.3969 26.66 16.3215C26.4779 16.2461 26.2829 16.2073 26.0859 16.2073C25.8889 16.2073 25.6938 16.2461 25.5118 16.3215C25.3298 16.3969 25.1644 16.5074 25.0251 16.6467Z" />
    </symbol>
    <symbol id='list' viewBox="0 0 32 32">
        <path d="M12.4955 9.31667H25.0667C25.3611 9.31667 25.6 9.07827 25.6 8.78333C25.6 8.4884 25.3611 8.25 25.0667 8.25H12.4955C12.2011 8.25 11.9622 8.4884 11.9622 8.78333C11.9622 9.07827 12.2011 9.31667 12.4955 9.31667Z" />
        <path d="M12.4955 17.3167H25.0667C25.3611 17.3167 25.6 17.0783 25.6 16.7833C25.6 16.4884 25.3611 16.25 25.0667 16.25H12.4955C12.2011 16.25 11.9622 16.4884 11.9622 16.7833C11.9622 17.0783 12.2011 17.3167 12.4955 17.3167Z" />
        <path d="M12.4955 25.3167H25.0667C25.3611 25.3167 25.6 25.0783 25.6 24.7833C25.6 24.4884 25.3611 24.25 25.0667 24.25H12.4955C12.2011 24.25 11.9622 24.4884 11.9622 24.7833C11.9622 25.0783 12.2011 25.3167 12.4955 25.3167Z" />
        <path d="M31.4667 0.25H0.533333C0.238933 0.25 0 0.4884 0 0.783333V31.7167C0 32.0116 0.238933 32.25 0.533333 32.25H31.4667C31.7611 32.25 32 32.0116 32 31.7167V0.783333C32 0.4884 31.7611 0.25 31.4667 0.25ZM30.9333 31.1833H1.06667V1.31667H30.9333V31.1833Z" />
        <path d="M6.66723 10.1028L7.96217 9.42177L9.2571 10.1028L9.01017 8.6607L10.0576 7.63883L8.60963 7.4287L7.96217 6.1167L7.3147 7.4287L5.8667 7.63883L6.9147 8.6607L6.66723 10.1028Z" />
        <path d="M6.66723 18.147L7.96217 17.466L9.2571 18.147L9.01017 16.7049L10.0576 15.6836L8.60963 15.4729L7.96217 14.1609L7.3147 15.4729L5.8667 15.6836L6.9147 16.7049L6.66723 18.147Z" />
        <path d="M6.66723 26.3834L7.96217 25.7023L9.2571 26.3834L9.01017 24.9412L10.0576 23.9199L8.60963 23.7092L7.96217 22.3972L7.3147 23.7092L5.8667 23.9199L6.9147 24.9412L6.66723 26.3834Z" />
    </symbol>
    <symbol id='placeholder' viewBox="0 0 32 32">
        <path d="M15.9999 14.1166C18.0586 14.1166 19.7333 12.4414 19.7333 10.3832C19.7333 8.3251 18.0586 6.6499 15.9999 6.6499C13.9413 6.6499 12.2666 8.3251 12.2666 10.3832C12.2666 12.4414 13.9413 14.1166 15.9999 14.1166ZM15.9999 7.71657C17.4703 7.71657 18.6666 8.91284 18.6666 10.3832C18.6666 11.8536 17.4703 13.0499 15.9999 13.0499C14.5295 13.0499 13.3333 11.8536 13.3333 10.3832C13.3333 8.91284 14.5295 7.71657 15.9999 7.71657Z" />
        <path d="M15.9055 29.4537L24.0874 17.6367C27.1562 13.5455 26.7124 6.82067 23.1375 3.24627C21.2058 1.314 18.6372 0.25 15.9055 0.25C13.1738 0.25 10.6052 1.314 8.67349 3.24573C5.09855 6.82013 4.65482 13.5449 7.71135 17.6201L15.9055 29.4537ZM9.42762 3.99987C11.1583 2.26973 13.4586 1.31667 15.9055 1.31667C18.3524 1.31667 20.6527 2.26973 22.3834 3.99987C25.61 7.226 26.0074 13.2996 23.2223 17.0127L15.9055 27.5796L8.57696 16.9967C5.80362 13.2996 6.20149 7.226 9.42762 3.99987Z" />
        <path d="M22.4624 23.187C22.1691 23.1513 21.9045 23.3614 21.8704 23.6542C21.8363 23.947 22.0453 24.2121 22.3376 24.2462C27.9461 24.9065 30.9333 26.6857 30.9333 27.7166C30.9333 29.1641 25.2523 31.1833 16 31.1833C6.74773 31.1833 1.06667 29.1641 1.06667 27.7166C1.06667 26.6857 4.05387 24.9065 9.6624 24.2462C9.95467 24.2121 10.1637 23.9465 10.1296 23.6542C10.0949 23.3614 9.8304 23.1502 9.5376 23.187C3.92213 23.8484 0 25.7108 0 27.7166C0 29.9694 5.496 32.25 16 32.25C26.504 32.25 32 29.9694 32 27.7166C32 25.7108 28.0779 23.8484 22.4624 23.187Z" />
    </symbol>
    <symbol id='product' viewBox="0 0 32 32">
        <path d="M31.9286 22.2366C31.7066 21.4277 31.0283 20.8257 30.1987 20.7013V8.54146H31.2583C31.5509 8.54146 31.7881 8.30424 31.7881 8.01166V2.71364C31.7881 2.4208 31.5509 2.18384 31.2583 2.18384H7.94703C7.65445 2.18384 7.41723 2.4208 7.41723 2.71364V8.01166C7.41723 8.30424 7.65445 8.54146 7.94703 8.54146H9.00663V19.1375H8.47683C7.1619 19.1344 5.87387 19.5113 4.76822 20.223V17.5481C4.76822 17.2553 4.531 17.0183 4.23842 17.0183H0.529802C0.237221 17.0183 0 17.2553 0 17.5481V29.7335C0 30.0261 0.237221 30.2633 0.529802 30.2633H4.23842C4.531 30.2633 4.76822 30.0261 4.76822 29.7335V27.0589C5.87413 27.7701 7.1619 28.147 8.47683 28.1441H17.1761C17.7789 28.1431 18.3788 28.0639 18.9611 27.9087L30.4318 24.836C31.5605 24.5284 32.2292 23.3674 31.9286 22.2366ZM8.47683 3.24344H30.7285V7.48186H8.47683V3.24344ZM10.0662 8.54146H29.1391V20.7924L22.9902 22.4413C22.737 21.8375 22.2204 21.384 21.5889 21.2109L14.4503 19.2963C14.0483 19.1905 13.6344 19.137 13.2187 19.1375H10.0662V8.54146ZM3.70861 29.2037H1.0596V18.0779H3.70861V29.2037ZM30.1568 23.8123L18.6882 26.8851C18.1949 27.0168 17.6868 27.0838 17.1761 27.0845H8.47683C7.21545 27.0874 5.98743 26.6781 4.98009 25.9189L4.76822 25.76V21.5216L4.98009 21.3625C5.98743 20.6033 7.21545 20.1937 8.47683 20.1971H13.2187C13.5423 20.1968 13.8649 20.2388 14.1782 20.3215L21.3144 22.2346C21.7361 22.3507 22.0447 22.7121 22.0928 23.147C22.0985 23.1687 22.1055 23.1902 22.1141 23.2111C22.1078 23.2339 22.1032 23.2569 22.1001 23.2805C22.1006 23.3666 22.089 23.4525 22.0652 23.5353C21.9405 23.997 21.5222 24.3181 21.0438 24.3189C20.9505 24.3196 20.8578 24.3077 20.7678 24.2839L16.2645 23.0764C16.0798 23.0215 15.8798 23.0712 15.7422 23.2062C15.6048 23.3413 15.5513 23.5402 15.6028 23.7259C15.6543 23.9114 15.8025 24.0547 15.99 24.0995L20.4934 25.3076C20.6731 25.3549 20.8586 25.3787 21.0449 25.3785C21.9974 25.3779 22.8322 24.7408 23.0839 23.8219C23.1134 23.7156 23.1333 23.6069 23.1439 23.4972L29.6027 21.7653C29.6487 21.7537 29.6987 21.7418 29.7457 21.734C30.2732 21.666 30.7691 21.9994 30.9055 22.5132C30.9293 22.6027 30.9412 22.695 30.9404 22.7877C30.9412 23.2673 30.6199 23.6874 30.1568 23.8123Z" />
        <path d="M16.9536 10.6607H22.2517C22.5442 10.6607 22.7815 10.4235 22.7815 10.1309C22.7815 9.83804 22.5442 9.60107 22.2517 9.60107H16.9536C16.661 9.60107 16.4238 9.83804 16.4238 10.1309C16.4238 10.4235 16.661 10.6607 16.9536 10.6607Z" />
    </symbol>
    <symbol id='time' viewBox="0 0 32 32">
        <path d="M16 0.25C7.1776 0.25 0 7.4276 0 16.25C0 25.0724 7.1776 32.25 16 32.25C24.8224 32.25 32 25.0724 32 16.25C32 7.4276 24.8224 0.25 16 0.25ZM16 31.1833C7.76587 31.1833 1.06667 24.4841 1.06667 16.25C1.06667 8.01587 7.76587 1.31667 16 1.31667C24.2341 1.31667 30.9333 8.01587 30.9333 16.25C30.9333 24.4841 24.2341 31.1833 16 31.1833Z" />
        <path d="M16 3.44995C15.7056 3.44995 15.4667 3.68835 15.4667 3.98328V16.25H7.46668C7.17228 16.25 6.93335 16.4884 6.93335 16.7833C6.93335 17.0782 7.17228 17.3166 7.46668 17.3166H16C16.2944 17.3166 16.5333 17.0782 16.5333 16.7833V3.98328C16.5333 3.68835 16.2944 3.44995 16 3.44995Z" />
    </symbol>

    <symbol id='shop' viewBox="0 0 16 16">
        <path d="M4.8 12.8C3.92 12.8 3.2 13.52 3.2 14.4C3.2 15.28 3.92 16 4.8 16C5.68 16 6.4 15.28 6.4 14.4C6.4 13.52 5.68 12.8 4.8 12.8ZM0 0V1.6H1.6L4.48 7.68L3.36 9.6C3.28 9.84 3.2 10.16 3.2 10.4C3.2 11.28 3.92 12 4.8 12H14.4V10.4H5.12C5.04 10.4 4.96 10.32 4.96 10.24V10.16L5.68 8.79997H11.6C12.24 8.79997 12.72 8.47997 12.96 7.99997L15.84 2.8C16 2.64 16 2.56 16 2.4C16 1.92 15.68 1.6 15.2 1.6H3.36L2.64 0H0ZM12.8 12.8C11.92 12.8 11.2 13.52 11.2 14.4C11.2 15.28 11.92 16 12.8 16C13.68 16 14.4 15.28 14.4 14.4C14.4 13.52 13.68 12.8 12.8 12.8Z"/>
    </symbol>

    <!-- Earn -->
    <symbol id='dimond' viewBox="0 0 32 32">
       <path d="M31.9925 10.7567C31.9962 10.7349 31.9984 10.7135 31.9994 10.6911C32.0005 10.665 32 10.6399 31.9978 10.6138C31.9957 10.5914 31.9925 10.57 31.9872 10.5481C31.9813 10.5225 31.9733 10.498 31.9637 10.4735C31.9589 10.4607 31.9578 10.4473 31.9519 10.4351C31.9477 10.426 31.9402 10.4191 31.9354 10.41C31.9306 10.4009 31.9285 10.3913 31.9231 10.3822L26.5886 1.84692C26.564 1.80797 26.5352 1.77277 26.5027 1.74183C26.5021 1.74129 26.5016 1.74129 26.5011 1.74076C26.4552 1.69755 26.4008 1.66661 26.3426 1.64207C26.3352 1.63887 26.3304 1.63247 26.3224 1.62927C26.3165 1.62713 26.3101 1.6282 26.3042 1.6266C26.2503 1.60846 26.1949 1.59619 26.1367 1.59619H5.86532C5.80771 1.59619 5.75276 1.60846 5.69995 1.62607C5.69408 1.62767 5.68821 1.6266 5.68288 1.62873C5.67488 1.6314 5.67008 1.6378 5.66261 1.641C5.60713 1.66394 5.55485 1.69381 5.5095 1.73436C5.50684 1.73702 5.5031 1.73862 5.50044 1.74076C5.46736 1.7717 5.43802 1.80744 5.41348 1.84638L0.0789037 10.3817C0.0735691 10.3902 0.0714353 10.4004 0.0666342 10.4094C0.0618331 10.4185 0.0543647 10.4255 0.050097 10.4345C0.044229 10.4468 0.043162 10.4601 0.0378275 10.4729C0.0282252 10.4975 0.0202234 10.522 0.0143553 10.5476C0.0095542 10.5695 0.00582 10.5914 0.00368616 10.6138C-4.80409e-05 10.6399 -0.000581499 10.6655 0.000485417 10.6911C0.00155233 10.7135 0.00368616 10.7349 0.00742037 10.7567C0.011688 10.7823 0.018623 10.8074 0.0271583 10.8325C0.0340933 10.8533 0.0415617 10.8736 0.0511639 10.8938C0.055965 10.9034 0.0575654 10.9141 0.0629 10.9237C0.0714353 10.9392 0.0842383 10.9509 0.0938405 10.9653C0.101309 10.9765 0.105577 10.9888 0.114645 10.9995L15.5791 30.1965C15.5801 30.1981 15.5812 30.1991 15.5823 30.2002L15.5849 30.2039C15.5865 30.2061 15.5892 30.2066 15.5908 30.2087C15.6345 30.2615 15.6889 30.3016 15.7482 30.3336C15.7642 30.3421 15.7791 30.3496 15.7956 30.3565C15.8602 30.3837 15.9285 30.4029 16 30.4029C16.0608 30.4029 16.1221 30.3922 16.1829 30.3704C16.192 30.3672 16.1979 30.3597 16.2069 30.356C16.2341 30.3448 16.2555 30.3266 16.28 30.3112C16.3206 30.2856 16.3584 30.2589 16.3899 30.2242C16.3974 30.2162 16.4086 30.2125 16.4155 30.2039L31.8858 10.9995C31.8943 10.9888 31.8986 10.976 31.9066 10.9653C31.9167 10.9509 31.929 10.9392 31.9375 10.9237C31.9429 10.9141 31.9445 10.9034 31.9493 10.8938C31.9589 10.8736 31.9663 10.8538 31.9733 10.8325C31.9807 10.8074 31.9882 10.7829 31.9925 10.7567ZM17.1213 2.66364H25.368L22.7754 9.6226L17.1213 2.66364ZM21.8141 10.132H10.1863L16 2.97678L21.8141 10.132ZM9.18716 9.66901L6.6271 2.66364H14.8792L9.18716 9.66901ZM22.1881 11.199L15.9066 28.0594L9.74569 11.199H22.1881ZM26.2573 3.33206L30.5073 10.1326H23.7239L26.2573 3.33206ZM5.73782 3.339L8.22 10.132H1.49257L5.73782 3.339ZM8.60996 11.199L14.3921 27.0235L1.6446 11.199H8.60996ZM17.2787 27.4321L23.3265 11.199H30.3553L17.2787 27.4321Z"/>
    </symbol>
    <symbol id='calendar' viewBox="0 0 32 32">
        <path d="M23.6684 2.48278C23.4119 1.2254 22.2979 0.275879 20.9655 0.275879C20.6604 0.275879 20.4138 0.5225 20.4138 0.827603C20.4138 1.13271 20.6604 1.37933 20.9655 1.37933C21.8781 1.37933 22.6207 2.12195 22.6207 3.0345C22.6207 3.94705 21.8781 4.68967 20.9655 4.68967C20.6604 4.68967 20.4138 4.93629 20.4138 5.2414C20.4138 5.5465 20.6604 5.79312 20.9655 5.79312C22.2974 5.79312 23.4119 4.8436 23.6684 3.58622H30.8966V8.55174H1.10345V3.58622H8.82759H10.4828C10.7879 3.58622 11.0345 3.3396 11.0345 3.0345C11.0345 2.7294 10.7879 2.48278 10.4828 2.48278H9.48083C9.70924 1.84167 10.3161 1.37933 11.0345 1.37933C11.947 1.37933 12.6897 2.12195 12.6897 3.0345C12.6897 3.94705 11.947 4.68967 11.0345 4.68967C10.7294 4.68967 10.4828 4.93629 10.4828 5.2414C10.4828 5.5465 10.7294 5.79312 11.0345 5.79312C12.5556 5.79312 13.7931 4.5556 13.7931 3.0345C13.7931 1.5134 12.5556 0.275879 11.0345 0.275879C9.70262 0.275879 8.58814 1.2254 8.33159 2.48278H0V9.65519V31.7242H32V9.65519V2.48278H23.6684ZM30.8966 30.6207H1.10345V9.65519H30.8966V30.6207Z"/>
        <path d="M14.3449 1.37933C15.2575 1.37933 16.0001 2.12195 16.0001 3.0345C16.0001 3.94705 15.2575 4.68967 14.3449 4.68967C14.0398 4.68967 13.7932 4.93629 13.7932 5.2414C13.7932 5.5465 14.0398 5.79312 14.3449 5.79312C15.866 5.79312 17.1036 4.5556 17.1036 3.0345C17.1036 1.5134 15.866 0.275879 14.3449 0.275879C14.0398 0.275879 13.7932 0.5225 13.7932 0.827603C13.7932 1.13271 14.0398 1.37933 14.3449 1.37933Z"/>
        <path d="M17.6552 1.37933C18.5678 1.37933 19.3104 2.12195 19.3104 3.0345C19.3104 3.94705 18.5678 4.68967 17.6552 4.68967C17.3501 4.68967 17.1035 4.93629 17.1035 5.2414C17.1035 5.5465 17.3501 5.79312 17.6552 5.79312C19.1763 5.79312 20.4139 4.5556 20.4139 3.0345C20.4139 1.5134 19.1763 0.275879 17.6552 0.275879C17.3501 0.275879 17.1035 0.5225 17.1035 0.827603C17.1035 1.13271 17.3501 1.37933 17.6552 1.37933Z"/>
        <path d="M12.1379 14.0688C12.4426 14.0688 12.6896 13.8218 12.6896 13.5171C12.6896 13.2123 12.4426 12.9653 12.1379 12.9653C11.8332 12.9653 11.5862 13.2123 11.5862 13.5171C11.5862 13.8218 11.8332 14.0688 12.1379 14.0688Z"/>
        <path d="M16 14.0688C16.3047 14.0688 16.5517 13.8218 16.5517 13.5171C16.5517 13.2123 16.3047 12.9653 16 12.9653C15.6953 12.9653 15.4482 13.2123 15.4482 13.5171C15.4482 13.8218 15.6953 14.0688 16 14.0688Z"/>
        <path d="M19.862 14.0688C20.1667 14.0688 20.4138 13.8218 20.4138 13.5171C20.4138 13.2123 20.1667 12.9653 19.862 12.9653C19.5573 12.9653 19.3103 13.2123 19.3103 13.5171C19.3103 13.8218 19.5573 14.0688 19.862 14.0688Z"/>
        <path d="M23.7241 14.0688C24.0288 14.0688 24.2758 13.8218 24.2758 13.5171C24.2758 13.2123 24.0288 12.9653 23.7241 12.9653C23.4194 12.9653 23.1724 13.2123 23.1724 13.5171C23.1724 13.8218 23.4194 14.0688 23.7241 14.0688Z"/>
        <path d="M27.5861 14.0688C27.8909 14.0688 28.1379 13.8218 28.1379 13.5171C28.1379 13.2123 27.8909 12.9653 27.5861 12.9653C27.2814 12.9653 27.0344 13.2123 27.0344 13.5171C27.0344 13.8218 27.2814 14.0688 27.5861 14.0688Z"/>
        <path d="M4.41378 18.4828C4.71849 18.4828 4.96551 18.2358 4.96551 17.9311C4.96551 17.6264 4.71849 17.3794 4.41378 17.3794C4.10908 17.3794 3.86206 17.6264 3.86206 17.9311C3.86206 18.2358 4.10908 18.4828 4.41378 18.4828Z"/>
        <path d="M8.27585 18.4828C8.58055 18.4828 8.82757 18.2358 8.82757 17.9311C8.82757 17.6264 8.58055 17.3794 8.27585 17.3794C7.97114 17.3794 7.72412 17.6264 7.72412 17.9311C7.72412 18.2358 7.97114 18.4828 8.27585 18.4828Z"/>
        <path d="M12.1379 18.4828C12.4426 18.4828 12.6896 18.2358 12.6896 17.9311C12.6896 17.6264 12.4426 17.3794 12.1379 17.3794C11.8332 17.3794 11.5862 17.6264 11.5862 17.9311C11.5862 18.2358 11.8332 18.4828 12.1379 18.4828Z"/>
        <path d="M16 18.4828C16.3047 18.4828 16.5517 18.2358 16.5517 17.9311C16.5517 17.6264 16.3047 17.3794 16 17.3794C15.6953 17.3794 15.4482 17.6264 15.4482 17.9311C15.4482 18.2358 15.6953 18.4828 16 18.4828Z"/>
        <path d="M19.862 18.4828C20.1667 18.4828 20.4138 18.2358 20.4138 17.9311C20.4138 17.6264 20.1667 17.3794 19.862 17.3794C19.5573 17.3794 19.3103 17.6264 19.3103 17.9311C19.3103 18.2358 19.5573 18.4828 19.862 18.4828Z"/>
        <path d="M23.7241 18.4828C24.0288 18.4828 24.2758 18.2358 24.2758 17.9311C24.2758 17.6264 24.0288 17.3794 23.7241 17.3794C23.4194 17.3794 23.1724 17.6264 23.1724 17.9311C23.1724 18.2358 23.4194 18.4828 23.7241 18.4828Z"/>
        <path d="M27.5861 18.4828C27.8909 18.4828 28.1379 18.2358 28.1379 17.9311C28.1379 17.6264 27.8909 17.3794 27.5861 17.3794C27.2814 17.3794 27.0344 17.6264 27.0344 17.9311C27.0344 18.2358 27.2814 18.4828 27.5861 18.4828Z"/>
        <path d="M4.41378 22.3447C4.71849 22.3447 4.96551 22.0976 4.96551 21.7929C4.96551 21.4882 4.71849 21.2412 4.41378 21.2412C4.10908 21.2412 3.86206 21.4882 3.86206 21.7929C3.86206 22.0976 4.10908 22.3447 4.41378 22.3447Z"/>
        <path d="M8.27585 22.3447C8.58055 22.3447 8.82757 22.0976 8.82757 21.7929C8.82757 21.4882 8.58055 21.2412 8.27585 21.2412C7.97114 21.2412 7.72412 21.4882 7.72412 21.7929C7.72412 22.0976 7.97114 22.3447 8.27585 22.3447Z"/>
        <path d="M12.1379 22.3447C12.4426 22.3447 12.6896 22.0976 12.6896 21.7929C12.6896 21.4882 12.4426 21.2412 12.1379 21.2412C11.8332 21.2412 11.5862 21.4882 11.5862 21.7929C11.5862 22.0976 11.8332 22.3447 12.1379 22.3447Z"/>
        <path d="M16 22.3447C16.3047 22.3447 16.5517 22.0976 16.5517 21.7929C16.5517 21.4882 16.3047 21.2412 16 21.2412C15.6953 21.2412 15.4482 21.4882 15.4482 21.7929C15.4482 22.0976 15.6953 22.3447 16 22.3447Z"/>
        <path d="M19.862 22.3447C20.1667 22.3447 20.4138 22.0976 20.4138 21.7929C20.4138 21.4882 20.1667 21.2412 19.862 21.2412C19.5573 21.2412 19.3103 21.4882 19.3103 21.7929C19.3103 22.0976 19.5573 22.3447 19.862 22.3447Z"/>
        <path d="M23.7241 22.3447C24.0288 22.3447 24.2758 22.0976 24.2758 21.7929C24.2758 21.4882 24.0288 21.2412 23.7241 21.2412C23.4194 21.2412 23.1724 21.4882 23.1724 21.7929C23.1724 22.0976 23.4194 22.3447 23.7241 22.3447Z"/>
        <path d="M27.5861 22.3447C27.8909 22.3447 28.1379 22.0976 28.1379 21.7929C28.1379 21.4882 27.8909 21.2412 27.5861 21.2412C27.2814 21.2412 27.0344 21.4882 27.0344 21.7929C27.0344 22.0976 27.2814 22.3447 27.5861 22.3447Z"/>
        <path d="M4.41378 26.7587C4.71849 26.7587 4.96551 26.5117 4.96551 26.207C4.96551 25.9023 4.71849 25.6553 4.41378 25.6553C4.10908 25.6553 3.86206 25.9023 3.86206 26.207C3.86206 26.5117 4.10908 26.7587 4.41378 26.7587Z"/>
        <path d="M8.27585 26.7587C8.58055 26.7587 8.82757 26.5117 8.82757 26.207C8.82757 25.9023 8.58055 25.6553 8.27585 25.6553C7.97114 25.6553 7.72412 25.9023 7.72412 26.207C7.72412 26.5117 7.97114 26.7587 8.27585 26.7587Z"/>
        <path d="M12.1379 26.7587C12.4426 26.7587 12.6896 26.5117 12.6896 26.207C12.6896 25.9023 12.4426 25.6553 12.1379 25.6553C11.8332 25.6553 11.5862 25.9023 11.5862 26.207C11.5862 26.5117 11.8332 26.7587 12.1379 26.7587Z"/>
        <path d="M16 26.7587C16.3047 26.7587 16.5517 26.5117 16.5517 26.207C16.5517 25.9023 16.3047 25.6553 16 25.6553C15.6953 25.6553 15.4482 25.9023 15.4482 26.207C15.4482 26.5117 15.6953 26.7587 16 26.7587Z"/>
        <path d="M19.862 26.7587C20.1667 26.7587 20.4138 26.5117 20.4138 26.207C20.4138 25.9023 20.1667 25.6553 19.862 25.6553C19.5573 25.6553 19.3103 25.9023 19.3103 26.207C19.3103 26.5117 19.5573 26.7587 19.862 26.7587Z"/>
    </symbol>
    <symbol id='umbrella' viewBox="0 0 32 32">
        <path d="M29.3062 15.0672C29.3158 15.0304 29.327 14.9952 29.3286 14.9568C29.3291 14.9488 29.3334 14.9419 29.3334 14.9333C29.3334 7.76 23.639 1.89493 16.5334 1.61333V0.533333C16.5334 0.2384 16.2945 0 16.0001 0C15.7057 0 15.4667 0.2384 15.4667 0.533333V1.61333C8.36115 1.89493 2.66675 7.76 2.66675 14.9333C2.66675 14.9419 2.67101 14.9488 2.67155 14.9573C2.67315 14.9952 2.68381 15.0304 2.69395 15.0677C2.70248 15.0992 2.70728 15.1307 2.72061 15.1595C2.73395 15.1877 2.75475 15.2112 2.77288 15.2368C2.79528 15.2683 2.81608 15.2997 2.84488 15.3259C2.85075 15.3312 2.85341 15.3392 2.85981 15.3445C2.87901 15.3605 2.90248 15.3659 2.92275 15.3787C2.95421 15.3984 2.98408 15.4181 3.01981 15.4309C3.05715 15.4448 3.09501 15.4491 3.13341 15.4539C3.15635 15.456 3.17661 15.4667 3.20008 15.4667C3.20808 15.4667 3.21448 15.4624 3.22248 15.4624C3.26301 15.4608 3.30088 15.4496 3.33981 15.4389C3.36861 15.4309 3.39795 15.4267 3.42408 15.4139C3.45448 15.4 3.47955 15.3776 3.50728 15.3579C3.53661 15.3365 3.56648 15.3168 3.59101 15.2901C3.59688 15.2837 3.60488 15.2811 3.61075 15.2741C4.36275 14.3664 5.35368 13.8667 6.40008 13.8667C7.44648 13.8667 8.43741 14.3664 9.18941 15.2741C9.19955 15.2864 9.21501 15.2912 9.22621 15.3024C9.23902 15.3152 9.24541 15.3323 9.25981 15.344C9.28115 15.3616 9.30675 15.368 9.32915 15.3819C9.35635 15.3984 9.38141 15.4149 9.41021 15.4256C9.45395 15.4427 9.49768 15.4496 9.54302 15.4544C9.56275 15.4565 9.58088 15.4667 9.60008 15.4667C9.60861 15.4667 9.61661 15.4629 9.62461 15.4624C9.65181 15.4613 9.67688 15.4544 9.70355 15.4491C9.74035 15.4416 9.77555 15.4331 9.81021 15.4176C9.83688 15.4059 9.86088 15.3909 9.88542 15.3744C9.90302 15.3632 9.92275 15.3573 9.93928 15.3435C9.95208 15.3328 9.95795 15.3179 9.96968 15.3061C9.98195 15.2939 9.99848 15.2875 10.0097 15.2736C10.7627 14.3664 11.7537 13.8667 12.8001 13.8667C13.7921 13.8667 14.7307 14.32 15.4667 15.1392V29.3333C15.4667 30.2155 14.7489 30.9333 13.8667 30.9333C12.9846 30.9333 12.2667 30.2155 12.2667 29.3333C12.2667 29.0384 12.0278 28.8 11.7334 28.8C11.439 28.8 11.2001 29.0384 11.2001 29.3333C11.2001 30.8037 12.3963 32 13.8667 32C15.3371 32 16.5334 30.8037 16.5334 29.3333V15.1392C17.2694 14.32 18.2081 13.8667 19.2001 13.8667C20.2465 13.8667 21.2374 14.3664 21.9894 15.2741C21.9995 15.2864 22.015 15.2912 22.0262 15.3024C22.039 15.3152 22.0454 15.3323 22.0598 15.344C22.0811 15.3616 22.1067 15.3675 22.1291 15.3813C22.1563 15.3979 22.1814 15.4144 22.2107 15.4256C22.254 15.4421 22.2977 15.4496 22.3435 15.4544C22.3627 15.4565 22.3809 15.4667 22.4001 15.4667C22.4086 15.4667 22.4166 15.4629 22.4246 15.4624C22.4518 15.4613 22.4774 15.4544 22.5041 15.4485C22.5403 15.4411 22.5756 15.4325 22.6102 15.4176C22.6374 15.4059 22.6614 15.3904 22.6859 15.3744C22.7035 15.3632 22.7233 15.3573 22.7398 15.344C22.7526 15.3333 22.7585 15.3184 22.7697 15.3067C22.7819 15.2944 22.7985 15.288 22.8102 15.2741C23.5627 14.3664 24.5537 13.8667 25.6001 13.8667C26.6465 13.8667 27.6374 14.3664 28.3894 15.2741C28.3947 15.2805 28.4022 15.2821 28.4081 15.2885C28.4454 15.3296 28.4902 15.3605 28.5387 15.3888C28.5553 15.3984 28.5681 15.4128 28.5857 15.4203C28.6513 15.4491 28.7233 15.4667 28.8001 15.4667C28.8657 15.4667 28.9307 15.4523 28.9926 15.4277C29.0166 15.4181 29.0364 15.4027 29.0588 15.3899C29.0859 15.3744 29.1153 15.3643 29.1398 15.3435C29.1462 15.3381 29.1489 15.3307 29.1548 15.3248C29.1835 15.2987 29.2038 15.2677 29.2267 15.2357C29.2449 15.2101 29.2657 15.1861 29.279 15.1584C29.2929 15.1301 29.2982 15.0987 29.3062 15.0672ZM25.6001 12.8C24.4171 12.8 23.3003 13.2773 22.4001 14.1515C21.4998 13.2773 20.383 12.8 19.2001 12.8C18.0171 12.8 16.9003 13.2773 16.0001 14.1515C15.0998 13.2773 13.983 12.8 12.8001 12.8C11.6171 12.8 10.5003 13.2773 9.60008 14.1515C8.69982 13.2773 7.58301 12.8 6.40008 12.8C5.46675 12.8 4.57715 13.1019 3.80008 13.656C4.44115 7.49013 9.66782 2.66667 16.0001 2.66667C22.3323 2.66667 27.559 7.49013 28.2001 13.656C27.423 13.1019 26.5334 12.8 25.6001 12.8Z"/>
    </symbol>
    <symbol id='view' viewBox="0 0 32 32">
        <path d="M27.6011 11.6548C21.1746 5.22834 10.7189 5.22834 4.29243 11.6548L0 15.9467L4.39892 20.3456C7.61189 23.5586 11.8324 25.1656 16.0535 25.1656C20.2746 25.1656 24.4946 23.5591 27.7081 20.3456L32.0005 16.0532L27.6011 11.6548ZM26.9432 19.5813C20.9384 25.5856 11.1681 25.5856 5.16324 19.5813L1.52865 15.9467L5.05676 12.4186C11.0616 6.41429 20.8319 6.41429 26.8368 12.4186L30.4714 16.0532L26.9432 19.5813Z"/>
        <path d="M15.4444 11.6597C13.3579 11.6597 11.6606 13.357 11.6606 15.4435C11.6606 15.7418 11.9028 15.984 12.2012 15.984C12.4996 15.984 12.7417 15.7418 12.7417 15.4435C12.7417 13.9532 13.9542 12.7407 15.4444 12.7407C15.7428 12.7407 15.985 12.4986 15.985 12.2002C15.985 11.9018 15.7433 11.6597 15.4444 11.6597Z"/>
        <path d="M15.985 8.95703C12.1104 8.95703 8.95801 12.1095 8.95801 15.9841C8.95801 19.8587 12.1104 23.0111 15.985 23.0111C19.8596 23.0111 23.0121 19.8587 23.0121 15.9841C23.0121 12.1095 19.8602 8.95703 15.985 8.95703ZM15.985 21.93C12.7067 21.93 10.0391 19.2624 10.0391 15.9841C10.0391 12.7057 12.7067 10.0381 15.985 10.0381C19.2634 10.0381 21.931 12.7057 21.931 15.9841C21.931 19.2624 19.264 21.93 15.985 21.93Z"/>
    </symbol>

    <!-- Subscription -->
    <symbol id='mail' viewBox="0 0 40 40">
        <g clip-path="url(#clip0_812_963)">
        <path d="M27.5585 12.3896H12.4457C11.0966 12.3896 10 13.4863 10 14.8353V25.1643C10 26.5134 11.0966 27.61 12.4457 27.61H27.5543C28.9034 27.61 30 26.5134 30 25.1643V14.8395C30.0041 13.4904 28.9075 12.3896 27.5585 12.3896ZM28.8868 25.1643C28.8868 25.8968 28.2909 26.4927 27.5585 26.4927H12.4457C11.7132 26.4927 11.1173 25.8968 11.1173 25.1643V14.8395C11.1173 14.107 11.7132 13.5111 12.4457 13.5111H27.5543C28.2868 13.5111 28.8827 14.107 28.8827 14.8395V25.1643H28.8868Z"/>
        <path d="M22.6115 19.8714L27.5029 15.4849C27.7305 15.278 27.7512 14.9263 27.5443 14.6945C27.3374 14.4669 26.9856 14.4462 26.7539 14.6532L20.0086 20.7074L18.6927 19.5321C18.6885 19.528 18.6844 19.5238 18.6844 19.5197C18.6554 19.4907 18.6264 19.4659 18.5933 19.4411L13.2385 14.649C13.0067 14.4421 12.655 14.4628 12.4481 14.6945C12.2412 14.9263 12.2619 15.278 12.4936 15.4849L17.4429 19.9087L12.5143 24.5228C12.2908 24.7339 12.2784 25.0856 12.4895 25.3132C12.6012 25.4291 12.7502 25.4911 12.8992 25.4911C13.0357 25.4911 13.1723 25.4415 13.2799 25.3422L18.283 20.6618L19.6403 21.8743C19.7479 21.9695 19.8803 22.015 20.0127 22.015C20.1452 22.015 20.2817 21.9654 20.3852 21.8702L21.7798 20.6205L26.7539 25.3463C26.8615 25.4498 27.0022 25.4994 27.1388 25.4994C27.2877 25.4994 27.4326 25.4415 27.5443 25.3256C27.7554 25.1022 27.7471 24.7463 27.5236 24.5352L22.6115 19.8714Z"/>
        </g>
    </symbol>
    <symbol id='phone' viewBox="0 0 20 20">
        <path d="M15.8067 12.3892C15.3972 11.9628 14.9033 11.7349 14.3799 11.7349C13.8607 11.7349 13.3626 11.9586 12.9363 12.385L11.6024 13.7146C11.4927 13.6555 11.3829 13.6006 11.2774 13.5458C11.1254 13.4698 10.9819 13.398 10.8595 13.3221C9.61002 12.5285 8.47454 11.4943 7.38548 10.1562C6.85784 9.48926 6.50327 8.92785 6.24578 8.358C6.59191 8.04141 6.91272 7.71216 7.22508 7.39558C7.34327 7.27739 7.46146 7.15497 7.57966 7.03678C8.46609 6.15034 8.46609 5.00219 7.57966 4.11576L6.42729 2.96338C6.29643 2.83253 6.16135 2.69745 6.03472 2.56238C5.78145 2.30067 5.51552 2.03051 5.24115 1.77725C4.8317 1.37202 4.34204 1.15674 3.82706 1.15674C3.31209 1.15674 2.81399 1.37202 2.39188 1.77725C2.38766 1.78147 2.38766 1.78147 2.38344 1.78569L0.948249 3.23354C0.407943 3.77384 0.0998001 4.43234 0.0322619 5.19637C-0.0690454 6.42894 0.293972 7.57709 0.572568 8.32845C1.25639 10.1731 2.27791 11.8826 3.80174 13.7146C5.6506 15.9223 7.87514 17.6656 10.4163 18.894C11.3871 19.3541 12.683 19.8986 14.1309 19.9914C14.2195 19.9957 14.3124 19.9999 14.3968 19.9999C15.3719 19.9999 16.1908 19.6495 16.8324 18.9531C16.8366 18.9446 16.8451 18.9404 16.8493 18.9319C17.0688 18.666 17.322 18.4254 17.588 18.1679C17.7695 17.9949 17.9552 17.8133 18.1367 17.6234C18.5546 17.1886 18.7741 16.6821 18.7741 16.1629C18.7741 15.6395 18.5504 15.1371 18.1241 14.715L15.8067 12.3892ZM17.3178 16.834C17.3136 16.834 17.3136 16.8383 17.3178 16.834C17.1532 17.0113 16.9844 17.1717 16.8028 17.349C16.5285 17.6107 16.2499 17.8851 15.9882 18.1932C15.5618 18.6491 15.0595 18.8644 14.401 18.8644C14.3377 18.8644 14.2702 18.8644 14.2068 18.8602C12.9532 18.78 11.7881 18.2903 10.9144 17.8724C8.52519 16.7158 6.42729 15.0738 4.68396 12.9928C3.24455 11.2579 2.28213 9.65389 1.64474 7.93166C1.25217 6.8806 1.10865 6.0617 1.17197 5.28923C1.21418 4.79536 1.40413 4.38591 1.75449 4.03555L3.19389 2.59615C3.40073 2.40197 3.62023 2.29645 3.83551 2.29645C4.10144 2.29645 4.31672 2.45685 4.45179 2.59192C4.45601 2.59615 4.46024 2.60037 4.46446 2.60459C4.72195 2.84519 4.96677 3.09424 5.22426 3.36017C5.35512 3.49525 5.49019 3.63032 5.62527 3.76962L6.77764 4.92199C7.22508 5.36943 7.22508 5.7831 6.77764 6.23055C6.65523 6.35296 6.53703 6.47537 6.41462 6.59356C6.06005 6.95658 5.72236 7.29427 5.35512 7.62352C5.34667 7.63196 5.33823 7.63618 5.33401 7.64463C4.97099 8.00764 5.03853 8.36222 5.11451 8.60282C5.11873 8.61549 5.12295 8.62815 5.12718 8.64081C5.42688 9.36685 5.84899 10.0507 6.4906 10.8654L6.49482 10.8696C7.65986 12.3048 8.88821 13.4234 10.2432 14.2803C10.4163 14.39 10.5935 14.4786 10.7624 14.5631C10.9144 14.639 11.0579 14.7108 11.1803 14.7868C11.1972 14.7952 11.2141 14.8079 11.2309 14.8163C11.3745 14.8881 11.5095 14.9219 11.6488 14.9219C11.9992 14.9219 12.2187 14.7024 12.2904 14.6306L13.7341 13.187C13.8776 13.0435 14.1055 12.8704 14.3715 12.8704C14.6332 12.8704 14.8485 13.035 14.9793 13.1785C14.9835 13.1828 14.9835 13.1828 14.9878 13.187L17.3136 15.5128C17.7484 15.9434 17.7484 16.3866 17.3178 16.834Z"/>
        <path d="M10.8101 4.7574C11.9161 4.94313 12.9207 5.46656 13.7227 6.26857C14.5247 7.07059 15.0439 8.07522 15.2339 9.18116C15.2803 9.45975 15.5209 9.65392 15.7953 9.65392C15.8291 9.65392 15.8586 9.6497 15.8924 9.64548C16.2048 9.59483 16.4116 9.29935 16.3609 8.98698C16.133 7.64888 15.4998 6.42897 14.5332 5.46233C13.5665 4.49569 12.3466 3.86252 11.0085 3.63458C10.6962 3.58393 10.4049 3.79076 10.35 4.09891C10.2951 4.40705 10.4978 4.70675 10.8101 4.7574Z"/>
        <path d="M19.9771 8.82242C19.6014 6.61899 18.563 4.61395 16.9674 3.01836C15.3718 1.42277 13.3668 0.384369 11.1634 0.00868772C10.8552 -0.0461871 10.564 0.16487 10.5091 0.473013C10.4584 0.785377 10.6653 1.07664 10.9776 1.13151C12.9447 1.46498 14.7387 2.39785 16.1654 3.82037C17.5922 5.24712 18.5208 7.0411 18.8543 9.00815C18.9007 9.28675 19.1413 9.48092 19.4157 9.48092C19.4495 9.48092 19.479 9.4767 19.5128 9.47248C19.8209 9.42604 20.032 9.13056 19.9771 8.82242Z"/>
    </symbol>
</svg>



