<svg width="24" height="24" viewBox="0 0 24 24" fill="none" xmlns="http://www.w3.org/2000/svg">
<g clip-path="url(#clip0_195_115)">
<path d="M22.8 1.6H20V0.4C20 0.1788 19.8212 0 19.6 0H16.8C16.5788 0 16.4 0.1788 16.4 0.4V1.6H7.60005V0.4C7.60005 0.1788 7.42125 0 7.20005 0H4.40005C4.17885 0 4.00005 0.1788 4.00005 0.4V1.6H1.20005C0.978849 1.6 0.800049 1.7788 0.800049 2V6.4V23.6C0.800049 23.8212 0.978849 24 1.20005 24H22.8C23.0212 24 23.2 23.8212 23.2 23.6V6.4V2C23.2 1.7788 23.0212 1.6 22.8 1.6ZM17.2 0.8H19.2V2V3.2H17.2V2V0.8ZM4.80005 0.8H6.80005V2V3.2H4.80005V2V0.8ZM1.60005 2.4H4.00005V3.6C4.00005 3.8212 4.17885 4 4.40005 4H7.20005C7.42125 4 7.60005 3.8212 7.60005 3.6V2.4H16.4V3.6C16.4 3.8212 16.5788 4 16.8 4H19.6C19.8212 4 20 3.8212 20 3.6V2.4H22.4V6H1.60005V2.4ZM1.60005 23.2V6.8H22.4V23.2H1.60005Z" fill="black"/>
<path d="M15.2001 9.19998H12.4001H11.6001H8.80015H8.00015H4.40015V12.8V13.6V16.4V17.2V20.8H8.00015H8.80015H11.6001H12.4001H15.2001H16.0001H19.6001V17.2V16.4V13.6V12.8V9.19998H16.0001H15.2001ZM12.4001 9.99998H15.2001V12.8H12.4001V9.99998ZM15.2001 16.4H12.4001V13.6H15.2001V16.4ZM8.80015 13.6H11.6001V16.4H8.80015V13.6ZM8.80015 9.99998H11.6001V12.8H8.80015V9.99998ZM5.20015 9.99998H8.00015V12.8H5.20015V9.99998ZM5.20015 13.6H8.00015V16.4H5.20015V13.6ZM8.00015 20H5.20015V17.2H8.00015V20ZM11.6001 20H8.80015V17.2H11.6001V20ZM15.2001 20H12.4001V17.2H15.2001V20ZM18.8001 20H16.0001V17.2H18.8001V20ZM18.8001 16.4H16.0001V13.6H18.8001V16.4ZM18.8001 9.99998V12.8H16.0001V9.99998H18.8001Z" fill="black"/>
</g>
<defs>
<clipPath id="clip0_195_115">
<rect width="24" height="24" fill="white"/>
</clipPath>
</defs>
</svg>
